<svg id="visual" viewBox="0 0 600 900" width="600" height="900" xmlns="http://www.w3.org/2000/svg" xmlns:xlink="http://www.w3.org/1999/xlink" version="1.1"><rect x="0" y="0" width="600" height="900" fill="#282828"></rect><defs><linearGradient id="grad1_0" x1="0%" y1="0%" x2="100%" y2="100%"><stop offset="30%" stop-color="#f7770f" stop-opacity="1"></stop><stop offset="70%" stop-color="#f7770f" stop-opacity="1"></stop></linearGradient></defs><defs><linearGradient id="grad1_1" x1="0%" y1="0%" x2="100%" y2="100%"><stop offset="30%" stop-color="#f7770f" stop-opacity="1"></stop><stop offset="70%" stop-color="#8c4f26" stop-opacity="1"></stop></linearGradient></defs><defs><linearGradient id="grad1_2" x1="0%" y1="0%" x2="100%" y2="100%"><stop offset="30%" stop-color="#282828" stop-opacity="1"></stop><stop offset="70%" stop-color="#8c4f26" stop-opacity="1"></stop></linearGradient></defs><defs><linearGradient id="grad2_0" x1="0%" y1="0%" x2="100%" y2="100%"><stop offset="30%" stop-color="#f7770f" stop-opacity="1"></stop><stop offset="70%" stop-color="#f7770f" stop-opacity="1"></stop></linearGradient></defs><defs><linearGradient id="grad2_1" x1="0%" y1="0%" x2="100%" y2="100%"><stop offset="30%" stop-color="#8c4f26" stop-opacity="1"></stop><stop offset="70%" stop-color="#f7770f" stop-opacity="1"></stop></linearGradient></defs><defs><linearGradient id="grad2_2" x1="0%" y1="0%" x2="100%" y2="100%"><stop offset="30%" stop-color="#8c4f26" stop-opacity="1"></stop><stop offset="70%" stop-color="#282828" stop-opacity="1"></stop></linearGradient></defs><g transform="translate(600, 0)"><path d="M0 513.8C-43.1 473.7 -86.3 433.6 -136 418.5C-185.6 403.3 -241.8 413 -288 396.4C-334.2 379.8 -370.4 336.9 -404.5 293.9C-438.7 250.9 -470.8 207.8 -488.6 158.8C-506.5 109.8 -510.2 54.9 -513.8 0L0 0Z" fill="#5a3b28"></path><path d="M0 342.5C-28.8 315.8 -57.5 289.1 -90.6 279C-123.8 268.9 -161.2 275.3 -192 264.3C-222.8 253.2 -246.9 224.6 -269.7 195.9C-292.4 167.3 -313.8 138.5 -325.8 105.8C-337.7 73.2 -340.1 36.6 -342.5 0L0 0Z" fill="#c1631f"></path><path d="M0 171.3C-14.4 157.9 -28.8 144.5 -45.3 139.5C-61.9 134.4 -80.6 137.7 -96 132.1C-111.4 126.6 -123.5 112.3 -134.8 98C-146.2 83.6 -156.9 69.3 -162.9 52.9C-168.8 36.6 -170.1 18.3 -171.3 0L0 0Z" fill="#f7770f"></path></g><g transform="translate(0, 900)"><path d="M0 -513.8C45.6 -486.9 91.1 -460.1 146.2 -449.8C201.2 -439.6 265.8 -446 302 -415.7C338.2 -385.4 346 -318.4 373 -271C399.9 -223.5 446 -195.5 472.7 -153.6C499.3 -111.7 506.6 -55.8 513.8 0L0 0Z" fill="#5a3b28"></path><path d="M0 -342.5C30.4 -324.6 60.7 -306.7 97.4 -299.9C134.2 -293.1 177.2 -297.3 201.3 -277.1C225.5 -256.9 230.7 -212.3 248.6 -180.6C266.6 -149 297.3 -130.3 315.1 -102.4C332.9 -74.4 337.7 -37.2 342.5 0L0 0Z" fill="#c1631f"></path><path d="M0 -171.3C15.2 -162.3 30.4 -153.4 48.7 -149.9C67.1 -146.5 88.6 -148.7 100.7 -138.6C112.7 -128.5 115.3 -106.1 124.3 -90.3C133.3 -74.5 148.7 -65.2 157.6 -51.2C166.4 -37.2 168.9 -18.6 171.3 0L0 0Z" fill="#f7770f"></path></g></svg>