<svg id="visual" viewBox="0 0 960 540" width="960" height="540" xmlns="http://www.w3.org/2000/svg" xmlns:xlink="http://www.w3.org/1999/xlink" version="1.1"><rect x="0" y="0" width="960" height="540" fill="#282828"></rect><defs><linearGradient id="grad1_0" x1="43.8%" y1="0%" x2="100%" y2="100%"><stop offset="14.444444444444446%" stop-color="#f38c00" stop-opacity="1"></stop><stop offset="85.55555555555554%" stop-color="#f38c00" stop-opacity="1"></stop></linearGradient></defs><defs><linearGradient id="grad1_1" x1="43.8%" y1="0%" x2="100%" y2="100%"><stop offset="14.444444444444446%" stop-color="#f38c00" stop-opacity="1"></stop><stop offset="85.55555555555554%" stop-color="#ac6920" stop-opacity="1"></stop></linearGradient></defs><defs><linearGradient id="grad1_2" x1="43.8%" y1="0%" x2="100%" y2="100%"><stop offset="14.444444444444446%" stop-color="#694728" stop-opacity="1"></stop><stop offset="85.55555555555554%" stop-color="#ac6920" stop-opacity="1"></stop></linearGradient></defs><defs><linearGradient id="grad1_3" x1="43.8%" y1="0%" x2="100%" y2="100%"><stop offset="14.444444444444446%" stop-color="#694728" stop-opacity="1"></stop><stop offset="85.55555555555554%" stop-color="#282828" stop-opacity="1"></stop></linearGradient></defs><defs><linearGradient id="grad2_0" x1="0%" y1="0%" x2="56.3%" y2="100%"><stop offset="14.444444444444446%" stop-color="#f38c00" stop-opacity="1"></stop><stop offset="85.55555555555554%" stop-color="#f38c00" stop-opacity="1"></stop></linearGradient></defs><defs><linearGradient id="grad2_1" x1="0%" y1="0%" x2="56.3%" y2="100%"><stop offset="14.444444444444446%" stop-color="#ac6920" stop-opacity="1"></stop><stop offset="85.55555555555554%" stop-color="#f38c00" stop-opacity="1"></stop></linearGradient></defs><defs><linearGradient id="grad2_2" x1="0%" y1="0%" x2="56.3%" y2="100%"><stop offset="14.444444444444446%" stop-color="#ac6920" stop-opacity="1"></stop><stop offset="85.55555555555554%" stop-color="#694728" stop-opacity="1"></stop></linearGradient></defs><defs><linearGradient id="grad2_3" x1="0%" y1="0%" x2="56.3%" y2="100%"><stop offset="14.444444444444446%" stop-color="#282828" stop-opacity="1"></stop><stop offset="85.55555555555554%" stop-color="#694728" stop-opacity="1"></stop></linearGradient></defs><g transform="translate(960, 0)"><path d="M0 432C-44.3 414.1 -88.5 396.1 -119.9 369C-151.3 341.9 -169.8 305.7 -210.4 289.6C-251 273.6 -313.8 277.8 -349.5 253.9C-385.2 230 -394 178 -403.2 131C-412.5 84 -422.3 42 -432 0L0 0Z" fill="#493728"></path><path d="M0 324C-33.2 310.5 -66.4 297.1 -89.9 276.8C-113.5 256.4 -127.4 229.2 -157.8 217.2C-188.3 205.2 -235.3 208.4 -262.1 190.4C-288.9 172.5 -295.5 133.5 -302.4 98.3C-309.4 63 -316.7 31.5 -324 0L0 0Z" fill="#8a5825"></path><path d="M0 216C-22.1 207 -44.3 198.1 -59.9 184.5C-75.6 171 -84.9 152.8 -105.2 144.8C-125.5 136.8 -156.9 138.9 -174.7 127C-192.6 115 -197 89 -201.6 65.5C-206.3 42 -211.1 21 -216 0L0 0Z" fill="#cf7a17"></path><path d="M0 108C-11.1 103.5 -22.1 99 -30 92.3C-37.8 85.5 -42.5 76.4 -52.6 72.4C-62.8 68.4 -78.4 69.5 -87.4 63.5C-96.3 57.5 -98.5 44.5 -100.8 32.8C-103.1 21 -105.6 10.5 -108 0L0 0Z" fill="#f38c00"></path></g><g transform="translate(0, 540)"><path d="M0 -432C40.9 -403.6 81.7 -375.2 114 -350.9C146.3 -326.7 170.1 -306.7 215.1 -296.1C260.1 -285.5 326.3 -284.3 349.5 -253.9C372.7 -223.5 352.9 -164 359.5 -116.8C366.1 -69.6 399 -34.8 432 0L0 0Z" fill="#493728"></path><path d="M0 -324C30.6 -302.7 61.3 -281.4 85.5 -263.2C109.8 -245 127.6 -230 161.3 -222.1C195.1 -214.1 244.7 -213.2 262.1 -190.4C279.5 -167.7 264.7 -123 269.6 -87.6C274.6 -52.2 299.3 -26.1 324 0L0 0Z" fill="#8a5825"></path><path d="M0 -216C20.4 -201.8 40.9 -187.6 57 -175.5C73.2 -163.4 85.1 -153.4 107.6 -148.1C130.1 -142.7 163.1 -142.1 174.7 -127C186.3 -111.8 176.5 -82 179.7 -58.4C183 -34.8 199.5 -17.4 216 0L0 0Z" fill="#cf7a17"></path><path d="M0 -108C10.2 -100.9 20.4 -93.8 28.5 -87.7C36.6 -81.7 42.5 -76.7 53.8 -74C65 -71.4 81.6 -71.1 87.4 -63.5C93.2 -55.9 88.2 -41 89.9 -29.2C91.5 -17.4 99.8 -8.7 108 0L0 0Z" fill="#f38c00"></path></g></svg>