<svg id="visual" viewBox="0 0 900 900" width="900" height="900" xmlns="http://www.w3.org/2000/svg" xmlns:xlink="http://www.w3.org/1999/xlink" version="1.1"><rect x="0" y="0" width="900" height="900" fill="#001220"></rect><defs><linearGradient id="grad1_0" x1="0%" y1="100%" x2="100%" y2="0%"><stop offset="30%" stop-color="#001220" stop-opacity="1"></stop><stop offset="70%" stop-color="#001220" stop-opacity="1"></stop></linearGradient></defs><defs><linearGradient id="grad2_0" x1="0%" y1="100%" x2="100%" y2="0%"><stop offset="30%" stop-color="#001220" stop-opacity="1"></stop><stop offset="70%" stop-color="#001220" stop-opacity="1"></stop></linearGradient></defs><g transform="translate(900, 900)"><path d="M-491 0C-489.7 -44.4 -488.3 -88.9 -468.5 -125.5C-448.6 -162.2 -410.2 -191 -384.5 -222C-358.8 -253 -345.8 -286.1 -328.1 -328.1C-310.4 -370.1 -288.1 -421.1 -250 -433C-211.9 -444.9 -157.9 -417.9 -113.6 -424C-69.3 -430.2 -34.7 -469.7 0 -509.1L0 0Z" fill="#F7770F"></path></g><g transform="translate(0, 0)"><path d="M477 0C463.5 37.4 449.9 74.9 449.2 120.4C448.4 165.8 460.4 219.3 440.9 254.6C421.4 289.8 370.3 306.8 333.8 333.8C297.2 360.7 275.2 397.6 241 417.4C206.8 437.2 160.5 439.9 118.3 441.4C76.1 443 38 443.5 0 444L0 0Z" fill="#F7770F"></path></g></svg>